<svg width="187" height="70" viewBox="0 0 187 70" fill="none" xmlns="http://www.w3.org/2000/svg">
<g filter="url(#filter0_d_128_113)">
<path d="M28.1 16.4V40.3C28.1 44 27.05 46.85 24.95 48.85C22.8833 50.85 20.0833 51.85 16.55 51.85C12.85 51.85 9.88333 50.8 7.65 48.7C5.41667 46.6 4.3 43.6167 4.3 39.75H12.8C12.8 41.2167 13.1 42.3333 13.7 43.1C14.3 43.8333 15.1667 44.2 16.3 44.2C17.3333 44.2 18.1333 43.8667 18.7 43.2C19.2667 42.5333 19.55 41.5667 19.55 40.3V16.4H28.1ZM67.9563 16.4L55.5063 51.5H44.8063L32.3563 16.4H41.4563L50.1563 42.9L58.9063 16.4H67.9563Z" fill="#FF4C29"/>
</g>
<path d="M71.86 41.64C71.86 42.8 71.46 43.7667 70.66 44.54C69.8733 45.3 68.6667 45.68 67.04 45.68H64.36V51.5H62.54V37.56H67.04C68.6133 37.56 69.8067 37.94 70.62 38.7C71.4467 39.46 71.86 40.44 71.86 41.64ZM67.04 44.18C68.0533 44.18 68.8 43.96 69.28 43.52C69.76 43.08 70 42.4533 70 41.64C70 39.92 69.0133 39.06 67.04 39.06H64.36V44.18H67.04ZM80.442 51.64C79.1487 51.64 77.9687 51.34 76.902 50.74C75.8354 50.1267 74.9887 49.28 74.362 48.2C73.7487 47.1067 73.442 45.88 73.442 44.52C73.442 43.16 73.7487 41.94 74.362 40.86C74.9887 39.7667 75.8354 38.92 76.902 38.32C77.9687 37.7067 79.1487 37.4 80.442 37.4C81.7487 37.4 82.9354 37.7067 84.002 38.32C85.0687 38.92 85.9087 39.76 86.522 40.84C87.1354 41.92 87.442 43.1467 87.442 44.52C87.442 45.8933 87.1354 47.12 86.522 48.2C85.9087 49.28 85.0687 50.1267 84.002 50.74C82.9354 51.34 81.7487 51.64 80.442 51.64ZM80.442 50.06C81.4154 50.06 82.2887 49.8333 83.062 49.38C83.8487 48.9267 84.462 48.28 84.902 47.44C85.3554 46.6 85.582 45.6267 85.582 44.52C85.582 43.4 85.3554 42.4267 84.902 41.6C84.462 40.76 83.8554 40.1133 83.082 39.66C82.3087 39.2067 81.4287 38.98 80.442 38.98C79.4554 38.98 78.5754 39.2067 77.802 39.66C77.0287 40.1133 76.4154 40.76 75.962 41.6C75.522 42.4267 75.302 43.4 75.302 44.52C75.302 45.6267 75.522 46.6 75.962 47.44C76.4154 48.28 77.0287 48.9267 77.802 49.38C78.5887 49.8333 79.4687 50.06 80.442 50.06ZM97.1847 51.5L93.8647 45.8H91.6647V51.5H89.8447V37.56H94.3447C95.398 37.56 96.2847 37.74 97.0047 38.1C97.738 38.46 98.2847 38.9467 98.6447 39.56C99.0047 40.1733 99.1847 40.8733 99.1847 41.66C99.1847 42.62 98.9047 43.4667 98.3447 44.2C97.798 44.9333 96.9714 45.42 95.8647 45.66L99.3647 51.5H97.1847ZM91.6647 44.34H94.3447C95.3314 44.34 96.0714 44.1 96.5647 43.62C97.058 43.1267 97.3047 42.4733 97.3047 41.66C97.3047 40.8333 97.058 40.1933 96.5647 39.74C96.0847 39.2867 95.3447 39.06 94.3447 39.06H91.6647V44.34ZM110.593 37.56V39.04H106.793V51.5H104.973V39.04H101.153V37.56H110.593ZM120.713 37.56V39.04H114.653V43.74H119.573V45.22H114.653V51.5H112.833V37.56H120.713ZM129.231 51.64C127.938 51.64 126.758 51.34 125.691 50.74C124.624 50.1267 123.778 49.28 123.151 48.2C122.538 47.1067 122.231 45.88 122.231 44.52C122.231 43.16 122.538 41.94 123.151 40.86C123.778 39.7667 124.624 38.92 125.691 38.32C126.758 37.7067 127.938 37.4 129.231 37.4C130.538 37.4 131.724 37.7067 132.791 38.32C133.858 38.92 134.698 39.76 135.311 40.84C135.924 41.92 136.231 43.1467 136.231 44.52C136.231 45.8933 135.924 47.12 135.311 48.2C134.698 49.28 133.858 50.1267 132.791 50.74C131.724 51.34 130.538 51.64 129.231 51.64ZM129.231 50.06C130.204 50.06 131.078 49.8333 131.851 49.38C132.638 48.9267 133.251 48.28 133.691 47.44C134.144 46.6 134.371 45.6267 134.371 44.52C134.371 43.4 134.144 42.4267 133.691 41.6C133.251 40.76 132.644 40.1133 131.871 39.66C131.098 39.2067 130.218 38.98 129.231 38.98C128.244 38.98 127.364 39.2067 126.591 39.66C125.818 40.1133 125.204 40.76 124.751 41.6C124.311 42.4267 124.091 43.4 124.091 44.52C124.091 45.6267 124.311 46.6 124.751 47.44C125.204 48.28 125.818 48.9267 126.591 49.38C127.378 49.8333 128.258 50.06 129.231 50.06ZM140.454 50.02H145.334V51.5H138.634V37.56H140.454V50.02ZM149.087 37.56V51.5H147.267V37.56H149.087ZM158.508 51.64C157.215 51.64 156.035 51.34 154.968 50.74C153.902 50.1267 153.055 49.28 152.428 48.2C151.815 47.1067 151.508 45.88 151.508 44.52C151.508 43.16 151.815 41.94 152.428 40.86C153.055 39.7667 153.902 38.92 154.968 38.32C156.035 37.7067 157.215 37.4 158.508 37.4C159.815 37.4 161.002 37.7067 162.068 38.32C163.135 38.92 163.975 39.76 164.588 40.84C165.202 41.92 165.508 43.1467 165.508 44.52C165.508 45.8933 165.202 47.12 164.588 48.2C163.975 49.28 163.135 50.1267 162.068 50.74C161.002 51.34 159.815 51.64 158.508 51.64ZM158.508 50.06C159.482 50.06 160.355 49.8333 161.128 49.38C161.915 48.9267 162.528 48.28 162.968 47.44C163.422 46.6 163.648 45.6267 163.648 44.52C163.648 43.4 163.422 42.4267 162.968 41.6C162.528 40.76 161.922 40.1133 161.148 39.66C160.375 39.2067 159.495 38.98 158.508 38.98C157.522 38.98 156.642 39.2067 155.868 39.66C155.095 40.1133 154.482 40.76 154.028 41.6C153.588 42.4267 153.368 43.4 153.368 44.52C153.368 45.6267 153.588 46.6 154.028 47.44C154.482 48.28 155.095 48.9267 155.868 49.38C156.655 49.8333 157.535 50.06 158.508 50.06Z" fill="white"/>
<defs>
<filter id="filter0_d_128_113" x="0.299988" y="16.4" width="71.6562" height="43.45" filterUnits="userSpaceOnUse" color-interpolation-filters="sRGB">
<feFlood flood-opacity="0" result="BackgroundImageFix"/>
<feColorMatrix in="SourceAlpha" type="matrix" values="0 0 0 0 0 0 0 0 0 0 0 0 0 0 0 0 0 0 127 0" result="hardAlpha"/>
<feOffset dy="4"/>
<feGaussianBlur stdDeviation="2"/>
<feComposite in2="hardAlpha" operator="out"/>
<feColorMatrix type="matrix" values="0 0 0 0 0 0 0 0 0 0 0 0 0 0 0 0 0 0 0.25 0"/>
<feBlend mode="normal" in2="BackgroundImageFix" result="effect1_dropShadow_128_113"/>
<feBlend mode="normal" in="SourceGraphic" in2="effect1_dropShadow_128_113" result="shape"/>
</filter>
</defs>
</svg>
